<svg width="512" height="207" viewBox="0 0 512 207" fill="none" xmlns="http://www.w3.org/2000/svg">
<g filter="url(#filter0_dddd_648_1072)">
<path d="M32.6001 83.8V12H67.9001C74.4001 12 79.8001 12.8 84.2001 14.3C88.5001 15.9 91.8001 18 94.0001 20.8C96.2001 23.6 97.3001 26.7 97.3001 30.3C97.3001 33.1 96.6001 35.6 95.2001 37.7C93.8001 39.8 91.9001 41.5 89.5001 42.9C87.1001 44.3 84.4001 45.2 81.3001 45.8V46.5C84.7001 46.6 87.8001 47.4 90.8001 48.8C93.8001 50.2 96.1001 52.2 98.0001 54.8C99.8001 57.3 100.8 60.4 100.8 63.9C100.8 67.7 99.6001 71.1 97.3001 74.1C95.0001 77.1 91.6001 79.4 87.1001 81.2C82.6001 82.9 77.0001 83.8 70.4001 83.8H32.6001ZM51.4001 42.1H65.0001C67.5001 42.1 69.8001 41.7 71.8001 41C73.8001 40.3 75.4001 39.2 76.5001 37.9C77.6001 36.5 78.2001 34.9 78.2001 33.1C78.2001 30.5 77.1001 28.5 74.8001 26.9C72.6001 25.3 69.4001 24.5 65.3001 24.5H51.3001V42.1H51.4001ZM51.4001 71.3H66.4001C71.6001 71.3 75.3001 70.5 77.7001 68.9C80.1001 67.3 81.2001 65.2 81.2001 62.5C81.2001 60.5 80.6001 58.8 79.5001 57.3C78.3001 55.8 76.7001 54.6 74.5001 53.7C72.3001 52.8 69.8001 52.4 66.8001 52.4H51.4001V71.3Z" fill="#0000FF"/>
<path d="M136.6 84.9C129.8 84.9 124 83.8 119.1 81.5C114.2 79.2 110.4 76 107.8 71.9C105.2 67.8 103.8 62.8 103.8 57.2C103.8 51.7 105.1 46.8 107.8 42.6C110.5 38.4 114.2 35.2 119 32.8C123.8 30.5 129.4 29.3 135.9 29.3C140.3 29.3 144.4 29.9 148.2 31C152 32.1 155.3 33.8 158.1 36.1C160.9 38.4 163.1 41.2 164.7 44.6C166.3 48 167.1 52 167.1 56.6V60.7H111.2V51.4H149.6C149.6 49.3 149 47.4 147.9 45.8C146.8 44.2 145.2 42.9 143.2 41.9C141.2 41 138.9 40.5 136.3 40.5C133.5 40.5 131.1 41 129 42.1C126.9 43.1 125.2 44.5 124 46.2C122.8 47.9 122.2 49.8 122.2 51.9V60.8C122.2 63.4 122.8 65.7 124 67.6C125.2 69.5 126.9 71 129.2 72C131.4 73 134 73.5 137 73.5C139 73.5 140.9 73.3 142.6 72.8C144.3 72.3 145.7 71.6 146.9 70.7C148.1 69.8 149 68.7 149.6 67.3L166.7 68.2C165.8 71.5 164.1 74.4 161.4 76.9C158.7 79.4 155.3 81.3 151.1 82.7C146.9 84.2 142.1 84.9 136.6 84.9Z" fill="#0000FF"/>
<path d="M173 83.8V30H191V39.4H191.7C192.9 36 194.9 33.5 197.8 31.8C200.6 30.1 203.9 29.2 207.6 29.2C208.5 29.2 209.5 29.2 210.5 29.3C211.5 29.4 212.5 29.5 213.3 29.7V43.1C212.5 42.9 211.3 42.7 209.8 42.5C208.3 42.3 206.9 42.3 205.6 42.3C202.9 42.3 200.5 42.8 198.4 43.7C196.3 44.6 194.6 46 193.4 47.6C192.2 49.3 191.6 51.2 191.6 53.4V83.7H173V83.8Z" fill="#0000FF"/>
<path d="M235.3 52.8V83.9H216.8V30H234.4V39.5H235.2C236.7 36.3 239.1 33.9 242.6 32C246 30.2 250.2 29.2 255.1 29.2C259.7 29.2 263.7 30 267.1 31.7C270.5 33.4 273.2 35.7 275.1 38.7C277 41.7 277.9 45.3 277.9 49.5V83.8H259.4V52.2C259.4 48.9 258.4 46.4 256.3 44.5C254.2 42.7 251.4 41.7 247.7 41.7C245.3 41.7 243.1 42.1 241.3 43C239.5 43.9 238 45.1 236.9 46.7C235.9 48.5 235.4 50.4 235.3 52.8Z" fill="#0000FF"/>
<path d="M305.3 84.9C301.1 84.9 297.3 84.3 294 83.1C290.7 81.9 288.1 80.1 286.2 77.7C284.3 75.3 283.3 72.4 283.3 68.8C283.3 65.8 284 63.3 285.3 61.3C286.6 59.3 288.5 57.6 290.8 56.4C293.1 55.2 295.8 54.2 298.7 53.6C301.7 53 304.8 52.5 308.1 52.3C311.9 52 315 51.7 317.3 51.4C319.6 51.1 321.4 50.7 322.4 50.1C323.5 49.5 324 48.7 324 47.5V47.3C324 45.1 323.1 43.4 321.4 42.2C319.7 41 317.3 40.4 314.2 40.4C311 40.4 308.4 41 306.4 42.1C304.4 43.2 303.2 44.7 302.6 46.5L285.4 45.4C286.2 42.1 287.9 39.3 290.4 36.9C292.9 34.5 296.2 32.6 300.2 31.3C304.2 30 308.9 29.3 314.2 29.3C317.9 29.3 321.5 29.7 324.8 30.4C328.2 31.1 331.2 32.2 333.8 33.7C336.4 35.2 338.5 37.1 340 39.3C341.5 41.5 342.3 44.3 342.3 47.5V83.8H325V76.3H324.5C323.4 78 322 79.5 320.2 80.7C318.4 81.9 316.3 83 313.8 83.7C311.3 84.4 308.5 84.9 305.3 84.9ZM310.6 74.5C313.3 74.5 315.6 74.1 317.7 73.2C319.8 72.3 321.3 71.2 322.5 69.7C323.7 68.2 324.3 66.5 324.3 64.7V59C323.7 59.3 322.9 59.6 322 59.8C321 60 319.9 60.3 318.7 60.5C317.5 60.7 316.3 60.9 315.1 61C313.9 61.2 312.8 61.3 311.8 61.4C309.7 61.7 307.8 62.1 306.2 62.6C304.6 63.1 303.4 63.9 302.5 64.8C301.6 65.7 301.2 66.9 301.2 68.3C301.2 70.3 302.1 71.9 303.9 72.9C305.5 74 307.8 74.5 310.6 74.5Z" fill="#0000FF"/>
<path d="M350.9 83.8V30H368.8V39.4H369.5C370.7 36 372.7 33.5 375.6 31.8C378.4 30.1 381.7 29.2 385.4 29.2C386.3 29.2 387.3 29.2 388.3 29.3C389.3 29.4 390.3 29.5 391.1 29.7V43.1C390.3 42.9 389.1 42.7 387.6 42.5C386.1 42.3 384.7 42.3 383.4 42.3C380.7 42.3 378.3 42.8 376.2 43.7C374.1 44.6 372.4 46 371.2 47.6C370 49.3 369.4 51.2 369.4 53.4V83.7H350.9V83.8Z" fill="#0000FF"/>
<path d="M419.1 84.7C414.1 84.7 409.5 83.6 405.5 81.5C401.4 79.4 398.2 76.3 395.9 72.1C393.5 68 392.4 62.9 392.4 56.9C392.4 50.7 393.6 45.6 396.1 41.5C398.6 37.4 401.8 34.3 405.8 32.3C409.9 30.3 414.3 29.3 419.2 29.3C422.9 29.3 425.9 29.8 428.4 30.8C430.9 31.8 432.9 33.1 434.4 34.6C435.9 36.1 437.1 37.6 437.9 39.1H438.5V12.1H457V83.9H438.7V75.3H437.9C437.1 76.8 435.9 78.3 434.3 79.7C432.7 81.2 430.7 82.4 428.2 83.3C425.6 84.2 422.6 84.7 419.1 84.7ZM425 72.7C427.9 72.7 430.4 72 432.4 70.7C434.4 69.4 436 67.6 437.1 65.2C438.2 62.8 438.7 60.1 438.7 56.9C438.7 53.7 438.2 51 437.1 48.6C436 46.3 434.5 44.5 432.4 43.2C430.4 41.9 427.9 41.3 424.9 41.3C421.9 41.3 419.4 42 417.4 43.3C415.4 44.6 413.8 46.4 412.8 48.8C411.8 51.1 411.2 53.9 411.2 57C411.2 60.1 411.7 62.8 412.8 65.2C413.9 67.6 415.4 69.4 417.4 70.8C419.5 72 422 72.7 425 72.7Z" fill="#0000FF"/>
<path d="M476.7 84.7C473.8 84.7 471.4 83.9 469.3 82.2C467.3 80.6 466.3 78.6 466.3 76.2C466.3 73.9 467.3 71.9 469.3 70.3C471.3 68.7 473.8 67.8 476.7 67.8C479.5 67.8 481.9 68.6 483.9 70.3C486 71.9 487 73.9 487 76.2C487 77.8 486.5 79.2 485.5 80.5C484.5 81.8 483.3 82.8 481.7 83.6C480.1 84.4 478.5 84.7 476.7 84.7Z" fill="#0000FF"/>
</g>
<defs>
<filter id="filter0_dddd_648_1072" x="-4.3999" y="0" width="588.4" height="206.9" filterUnits="userSpaceOnUse" color-interpolation-filters="sRGB">
<feFlood flood-opacity="0" result="BackgroundImageFix"/>
<feColorMatrix in="SourceAlpha" type="matrix" values="0 0 0 0 0 0 0 0 0 0 0 0 0 0 0 0 0 0 127 0" result="hardAlpha"/>
<feOffset dx="30" dy="55"/>
<feGaussianBlur stdDeviation="33.5"/>
<feComposite in2="hardAlpha" operator="out"/>
<feColorMatrix type="matrix" values="0 0 0 0 0.819608 0 0 0 0 0.85098 0 0 0 0 0.890196 0 0 0 0.67 0"/>
<feBlend mode="normal" in2="BackgroundImageFix" result="effect1_dropShadow_648_1072"/>
<feColorMatrix in="SourceAlpha" type="matrix" values="0 0 0 0 0 0 0 0 0 0 0 0 0 0 0 0 0 0 127 0" result="hardAlpha"/>
<feOffset dx="30" dy="25"/>
<feGaussianBlur stdDeviation="17"/>
<feComposite in2="hardAlpha" operator="out"/>
<feColorMatrix type="matrix" values="0 0 0 0 0.819608 0 0 0 0 0.85098 0 0 0 0 0.890196 0 0 0 0.34 0"/>
<feBlend mode="normal" in2="effect1_dropShadow_648_1072" result="effect2_dropShadow_648_1072"/>
<feColorMatrix in="SourceAlpha" type="matrix" values="0 0 0 0 0 0 0 0 0 0 0 0 0 0 0 0 0 0 127 0" result="hardAlpha"/>
<feOffset dx="30" dy="28"/>
<feGaussianBlur stdDeviation="19"/>
<feComposite in2="hardAlpha" operator="out"/>
<feColorMatrix type="matrix" values="0 0 0 0 0.819608 0 0 0 0 0.85098 0 0 0 0 0.890196 0 0 0 0.4 0"/>
<feBlend mode="normal" in2="effect2_dropShadow_648_1072" result="effect3_dropShadow_648_1072"/>
<feColorMatrix in="SourceAlpha" type="matrix" values="0 0 0 0 0 0 0 0 0 0 0 0 0 0 0 0 0 0 127 0" result="hardAlpha"/>
<feOffset dx="30" dy="35"/>
<feGaussianBlur stdDeviation="22.5"/>
<feComposite in2="hardAlpha" operator="out"/>
<feColorMatrix type="matrix" values="0 0 0 0 0.819608 0 0 0 0 0.85098 0 0 0 0 0.890196 0 0 0 0.48 0"/>
<feBlend mode="normal" in2="effect3_dropShadow_648_1072" result="effect4_dropShadow_648_1072"/>
<feBlend mode="normal" in="SourceGraphic" in2="effect4_dropShadow_648_1072" result="shape"/>
</filter>
</defs>
</svg>
