<svg width="137" height="49" viewBox="15 10 40 10" fill="none" xmlns="http://www.w3.org/2000/svg">
<path d="M36 21C38.7614 21 41 18.7614 41 16C41 13.2386 38.7614 11 36 11C33.2386 11 31 13.2386 31 16C31 18.7614 33.2386 21 36 21Z" stroke="#FFFFFF" stroke-miterlimit="10"/>
<path d="M38.9037 19.15H32.8077C32.6712 19.15 32.5625 19.0417 32.5625 18.9104V12.8021C32.5625 12.6687 32.6734 12.5625 32.8077 12.5625H38.9037C39.0401 12.5625 39.1489 12.6708 39.1489 12.8021V18.9104C39.151 19.0437 39.0401 19.15 38.9037 19.15Z" fill="#0000FF"/>
<path d="M34.4375 17.9292V14.125H35.945C36.2456 14.125 36.4929 14.1708 36.687 14.2625C36.881 14.3542 37.0281 14.475 37.1219 14.6292C37.2179 14.7812 37.2648 14.9521 37.2648 15.1375C37.2648 15.3 37.2328 15.4354 37.1667 15.5417C37.1006 15.6479 37.0153 15.7333 36.9108 15.7937C36.8042 15.8562 36.6912 15.9021 36.5676 15.9312V15.9688C36.6998 15.9771 36.832 16.0167 36.9663 16.0917C37.0985 16.1667 37.2115 16.2729 37.301 16.4104C37.3906 16.55 37.4354 16.7187 37.4354 16.9187C37.4354 17.1104 37.3863 17.2813 37.2882 17.4333C37.1902 17.5854 37.0345 17.7062 36.8234 17.7958C36.6123 17.8854 36.3352 17.9292 35.9961 17.9292H34.4375ZM34.9599 15.7979H35.9279C36.0857 15.7979 36.2264 15.7708 36.3543 15.7167C36.4823 15.6625 36.5825 15.5854 36.6571 15.4854C36.7317 15.3854 36.7701 15.2708 36.7701 15.1354C36.7701 14.9688 36.704 14.8271 36.5718 14.7083C36.4396 14.5917 36.2307 14.5333 35.945 14.5333H34.9599V15.7979ZM34.9599 17.5208H35.9961C36.3373 17.5208 36.5782 17.4625 36.7232 17.3458C36.8661 17.2292 36.9386 17.0875 36.9386 16.9187C36.9386 16.7896 36.9023 16.6708 36.8277 16.5604C36.7531 16.45 36.6465 16.3625 36.51 16.2958C36.3735 16.2292 36.2094 16.1958 36.0217 16.1958H34.962V17.5208H34.9599Z" fill="white"/>
<g filter="url(#filter0_dddd_351_1406)">
<path d="M38.3821 14.0602C38.7577 14.0602 39.0622 13.7562 39.0622 13.3811C39.0622 13.006 38.7577 12.7019 38.3821 12.7019C38.0064 12.7019 37.7019 13.006 37.7019 13.3811C37.7019 13.7562 38.0064 14.0602 38.3821 14.0602Z" fill="white"/>
</g>

</svg>
